<?xml version="1.0" ?><svg enable-background="new 0 0 512 512" id="Layer_1" version="1.1" viewBox="0 0 512 512" xml:space="preserve" xmlns="http://www.w3.org/2000/svg" xmlns:xlink="http://www.w3.org/1999/xlink"><g><path d="M458.6666565,0.0000088H53.3333397c-29.4550762,0-53.3333321,23.8776035-53.3333321,53.3333321v405.333313   C0.0000088,488.1223755,23.8782635,512,53.3333397,512h405.333313C488.1220703,512,512,488.1223755,512,458.6666565V53.3333397   C512,23.8776131,488.1220703,0.0000088,458.6666565,0.0000088z" fill="#DC6E79"/><path d="M512,218.673172L402.6826172,109.3554764h-293.333313v293.3333435L218.6604767,512h240.0061798   C488.1218567,512,512,488.1218567,512,458.6666565V218.673172z" fill="#A1334B"/><g><path d="M109.3334579,109.3331985v293.3333435h293.333313V109.3331985H109.3334579z M245.107605,305.0470276    H140.6528931v-31.1825562H245.107605V305.0470276z M245.107605,241.2726898H140.6528931v-31.1825562H245.107605V241.2726898z     M245.107605,177.4983673H140.6528931v-31.1825562H245.107605V177.4983673z M375.6763916,348.1272888H271.2216187V146.3158112    h104.4547729V348.1272888z" fill="#FFFFFF"/><rect fill="#FFFFFF" height="12.2222214" width="69.8242645" x="288.535675" y="304.5336914"/><rect fill="#FFFFFF" height="12.2222214" width="69.8242645" x="288.535675" y="262.2509155"/><rect fill="#FFFFFF" height="12.2222214" width="69.8242645" x="288.535675" y="219.96875"/><rect fill="#FFFFFF" height="12.2222214" width="69.8242645" x="288.535675" y="177.6859741"/></g></g></svg>